<?xml version="1.0" encoding="UTF-8"?><svg id="_Слой_1" xmlns="http://www.w3.org/2000/svg" viewBox="0 0 440 440"><defs><style>.cls-1,.cls-2{fill:none;}.cls-3{fill:#f7f2ed;opacity:.56;}.cls-4{fill:#77ccf1;}.cls-5{fill:#fff;}.cls-6{fill:#c79767;}.cls-2{stroke:#fff;stroke-linecap:round;stroke-miterlimit:10;stroke-width:10px;}.cls-7{fill:#a1d9f4;}.cls-8{fill:#0099cd;}</style></defs><path class="cls-3" d="M368.41,226.68c0,87.11-66.45,141.44-148.41,141.44s-148.41-54.33-148.41-141.44,83.3-2.3,142.14-62.94c91.97-94.79,154.68-24.17,154.68,62.94Z"/><path class="cls-4" d="M304.13,188.95c0,23.02-8.75,44-23.09,59.84-16.45,18.15-40.25,29.54-66.72,29.54s-50.29-11.4-66.72-29.54c-14.36-15.84-23.09-36.83-23.09-59.84,0-49.37,40.2-89.39,89.82-89.39s89.82,40.01,89.82,89.39Z"/><ellipse class="cls-2" cx="214.31" cy="158.4" rx="37.21" ry="37.03"/><path class="cls-2" d="M152.94,241.65c7.58-26.63,32.17-46.13,61.37-46.13s53.79,19.5,61.37,46.13"/><circle class="cls-8" cx="115.31" cy="180.8" r="34.5"/><path class="cls-5" d="M130.59,175.73h-10.13v-10.78c0-2.76-2.24-5-5-5h-.29c-2.76,0-5,2.24-5,5v10.78h-10.12c-2.76,0-5,2.24-5,5s2.24,5,5,5h10.12v10.92c0,2.76,2.24,5,5,5h.29c2.76,0,5-2.24,5-5v-10.92h10.13c2.76,0,5-2.24,5-5s-2.24-5-5-5Z"/><rect class="cls-7" x="215.34" y="237.01" width="9.33" height="181.87" rx="4.66" ry="4.66" transform="translate(547.95 107.95) rotate(90)"/><rect class="cls-7" x="215.34" y="274.85" width="9.33" height="142.46" rx="4.13" ry="4.13" transform="translate(566.07 126.07) rotate(90)"/><circle class="cls-4" cx="98.17" cy="124.11" r="5.55"/><circle class="cls-6" cx="277.05" cy="76.62" r="4.74"/><circle class="cls-6" cx="352.94" cy="176.06" r="4.74"/><circle class="cls-6" cx="106.81" cy="267.94" r="4.74"/><rect class="cls-8" x="258.24" y="252.07" width="116.73" height="18.68" transform="translate(-77.42 376.81) rotate(-55.87)"/><path class="cls-7" d="M291.59,314.96l-17.28,11.39c-1.15.76-2.63-.25-2.36-1.6l4.18-20.27,15.46,10.48Z"/><rect class="cls-7" x="340.24" y="208.59" width="11.67" height="18.68" transform="translate(-28.49 382.12) rotate(-55.87)"/><rect class="cls-7" x="256.49" y="261.2" width="106.4" height="4.02" transform="translate(-81.94 371.88) rotate(-55.87)"/><path class="cls-4" d="M337.53,132.96h-4.48v-4.77c0-1.22-.99-2.21-2.21-2.21h-.13c-1.22,0-2.21.99-2.21,2.21v4.77h-4.48c-1.22,0-2.21.99-2.21,2.21s.99,2.21,2.21,2.21h4.48v4.83c0,1.22.99,2.21,2.21,2.21h.13c1.22,0,2.21-.99,2.21-2.21v-4.83h4.48c1.22,0,2.21-.99,2.21-2.21s-.99-2.21-2.21-2.21Z"/><path class="cls-4" d="M355.47,105.29h-4.48v-4.77c0-1.22-.99-2.21-2.21-2.21h-.13c-1.22,0-2.21.99-2.21,2.21v4.77h-4.48c-1.22,0-2.21.99-2.21,2.21s.99,2.21,2.21,2.21h4.48v4.83c0,1.22.99,2.21,2.21,2.21h.13c1.22,0,2.21-.99,2.21-2.21v-4.83h4.48c1.22,0,2.21-.99,2.21-2.21s-.99-2.21-2.21-2.21Z"/><rect class="cls-1" width="440" height="440"/></svg>