<?xml version="1.0" encoding="UTF-8"?><svg id="_Слой_1" xmlns="http://www.w3.org/2000/svg" viewBox="0 0 440 440"><defs><style>.cls-1{fill:none;}.cls-2{fill:#f7f2ed;opacity:.56;}.cls-3{fill:#77ccf1;}.cls-4{fill:#fff;}.cls-5{fill:#c79767;}.cls-6{fill:#a1d9f4;}.cls-7{fill:#0099cd;}</style></defs><path class="cls-2" d="M78.2,220.95c0,87.11,66.45,141.44,148.41,141.44s148.41-54.33,148.41-141.44-83.3-2.3-142.14-62.94c-91.97-94.79-154.68-24.17-154.68,62.94Z"/><path class="cls-3" d="M264.59,335.24h-4.48v-4.77c0-1.22-.99-2.21-2.21-2.21h-.13c-1.22,0-2.21.99-2.21,2.21v4.77h-4.48c-1.22,0-2.21.99-2.21,2.21s.99,2.21,2.21,2.21h4.48v4.83c0,1.22.99,2.21,2.21,2.21h.13c1.22,0,2.21-.99,2.21-2.21v-4.83h4.48c1.22,0,2.21-.99,2.21-2.21s-.99-2.21-2.21-2.21Z"/><path class="cls-3" d="M282.52,307.57h-4.48v-4.77c0-1.22-.99-2.21-2.21-2.21h-.13c-1.22,0-2.21.99-2.21,2.21v4.77h-4.48c-1.22,0-2.21.99-2.21,2.21s.99,2.21,2.21,2.21h4.48v4.83c0,1.22.99,2.21,2.21,2.21h.13c1.22,0,2.21-.99,2.21-2.21v-4.83h4.48c1.22,0,2.21-.99,2.21-2.21s-.99-2.21-2.21-2.21Z"/><path class="cls-3" d="M287.77,355.06h-4.48v-4.77c0-1.22-.99-2.21-2.21-2.21h-.13c-1.22,0-2.21.99-2.21,2.21v4.77h-4.48c-1.22,0-2.21.99-2.21,2.21s.99,2.21,2.21,2.21h4.48v4.83c0,1.22.99,2.21,2.21,2.21h.13c1.22,0,2.21-.99,2.21-2.21v-4.83h4.48c1.22,0,2.21-.99,2.21-2.21s-.99-2.21-2.21-2.21Z"/><path class="cls-3" d="M316.06,345.84h-4.48v-4.77c0-1.22-.99-2.21-2.21-2.21h-.13c-1.22,0-2.21.99-2.21,2.21v4.77h-4.48c-1.22,0-2.21.99-2.21,2.21s.99,2.21,2.21,2.21h4.48v4.83c0,1.22.99,2.21,2.21,2.21h.13c1.22,0,2.21-.99,2.21-2.21v-4.83h4.48c1.22,0,2.21-.99,2.21-2.21s-.99-2.21-2.21-2.21Z"/><circle class="cls-3" cx="349.48" cy="118.39" r="5.55"/><circle class="cls-3" cx="169.59" cy="309.82" r="5.55"/><circle class="cls-5" cx="209.19" cy="73.47" r="4.74"/><circle class="cls-5" cx="133.5" cy="366.53" r="4.74"/><rect class="cls-7" x="275.96" y="258.6" width="116.73" height="18.68" transform="translate(-75.05 394.35) rotate(-55.87)"/><path class="cls-6" d="M309.3,321.49l-17.28,11.39c-1.15.76-2.63-.25-2.36-1.6l4.18-20.27,15.46,10.48Z"/><rect class="cls-6" x="357.96" y="215.12" width="11.67" height="18.68" transform="translate(-26.12 399.66) rotate(-55.87)"/><rect class="cls-6" x="274.21" y="267.73" width="106.4" height="4.02" transform="translate(-79.57 389.41) rotate(-55.87)"/><rect class="cls-3" x="64.97" y="128.55" width="236.2" height="155.03" rx="19.85" ry="19.85"/><circle class="cls-4" cx="112.12" cy="172.48" r="26.12"/><circle class="cls-4" cx="183.07" cy="172.48" r="26.12"/><circle class="cls-4" cx="254.02" cy="172.48" r="26.12"/><circle class="cls-4" cx="112.12" cy="239.67" r="26.12"/><circle class="cls-4" cx="183.07" cy="239.67" r="26.12"/><circle class="cls-4" cx="254.02" cy="239.67" r="26.12"/><circle class="cls-7" cx="301.29" cy="153.07" r="34.5"/><path class="cls-4" d="M316.57,148h-10.13v-10.78c0-2.76-2.24-5-5-5h-.29c-2.76,0-5,2.24-5,5v10.78h-10.12c-2.76,0-5,2.24-5,5s2.24,5,5,5h10.12v10.92c0,2.76,2.24,5,5,5h.29c2.76,0,5-2.24,5-5v-10.92h10.13c2.76,0,5-2.24,5-5s-2.24-5-5-5Z"/><circle class="cls-5" cx="112.12" cy="101.14" r="4.74"/><rect class="cls-1" width="440" height="440"/></svg>