<?xml version="1.0" encoding="UTF-8"?><svg id="_Слой_1" xmlns="http://www.w3.org/2000/svg" viewBox="0 0 440 440"><defs><style>.cls-1{fill:none;}.cls-2{fill:#f7f2ed;opacity:.56;}.cls-3{fill:#77ccf1;}.cls-4{stroke:#0099ce;stroke-miterlimit:10;stroke-width:8px;}.cls-4,.cls-5{fill:#ceeaf9;}.cls-6{fill:#fff;}.cls-7{fill:#c79767;}.cls-8{fill:#0099cd;}</style></defs><path class="cls-2" d="M363.93,226.68c0,87.11-66.45,141.44-148.41,141.44s-148.41-54.33-148.41-141.44,83.3-2.3,142.14-62.94c91.97-94.79,154.68-24.17,154.68,62.94Z"/><circle class="cls-3" cx="338.38" cy="124.11" r="5.55"/><circle class="cls-7" cx="159.5" cy="76.62" r="4.74"/><circle class="cls-7" cx="120.58" cy="320.28" r="4.74"/><circle class="cls-7" cx="83.61" cy="137.94" r="4.74"/><rect class="cls-5" x="78.83" y="172.08" width="157.73" height="103.53" rx="13.25" ry="13.25" transform="translate(-66.15 381.55) rotate(-90)"/><rect class="cls-6" x="153.04" y="220.02" width="9.33" height="86.26" rx="4.66" ry="4.66" transform="translate(420.85 105.45) rotate(90)"/><rect class="cls-6" x="153.04" y="234.78" width="9.33" height="86.26" rx="4.66" ry="4.66" transform="translate(435.61 120.21) rotate(90)"/><path class="cls-6" d="M166.7,189.34h17.49c3.66,0,5.19,4.69,2.22,6.84l-14.15,10.28,5.4,16.63c1.13,3.48-2.86,6.38-5.82,4.23l-14.15-10.28-14.15,10.28c-2.96,2.15-6.95-.74-5.82-4.23l5.4-16.63-14.15-10.28c-2.96-2.15-1.44-6.84,2.22-6.84h17.49s5.4-16.63,5.4-16.63c1.13-3.48,6.06-3.48,7.19,0l5.4,16.63Z"/><rect class="cls-5" x="194.47" y="172.08" width="157.73" height="103.53" rx="13.25" ry="13.25" transform="translate(49.49 497.18) rotate(-90)"/><path class="cls-6" d="M273.33,183.67s4.91-7.95,14.62-7.95c8.65,0,14.62,8.16,14.62,17.66,0,10.4-7.27,22.59-25.9,33.45-2.07,1.2-4.62,1.2-6.68,0-18.63-10.86-25.9-23.05-25.9-33.45,0-9.5,5.96-17.66,14.62-17.66,9.71,0,14.62,7.95,14.62,7.95Z"/><rect class="cls-6" x="268.67" y="219.36" width="9.33" height="86.26" rx="4.66" ry="4.66" transform="translate(535.82 -10.85) rotate(90)"/><rect class="cls-6" x="268.67" y="234.12" width="9.33" height="86.26" rx="4.66" ry="4.66" transform="translate(550.58 3.91) rotate(90)"/><rect class="cls-8" x="134.25" y="137.18" width="157.73" height="103.53" rx="13.25" ry="13.25" transform="translate(24.16 402.06) rotate(-90)"/><rect class="cls-5" x="208.45" y="186.49" width="9.33" height="86.26" rx="4.66" ry="4.66" transform="translate(442.73 16.51) rotate(90)"/><rect class="cls-5" x="208.45" y="201.25" width="9.33" height="86.26" rx="4.66" ry="4.66" transform="translate(457.49 31.27) rotate(90)"/><path class="cls-5" d="M210.27,195.71l-25.82-21.32c-1.91-1.58-2.54-4.49-1.48-6.89l9.06-20.67c.82-1.86,2.49-3.04,4.32-3.04h33.53c1.83,0,3.51,1.18,4.32,3.04l9.06,20.67c1.05,2.4.42,5.31-1.48,6.89l-25.82,21.32c-1.69,1.4-3.99,1.4-5.68,0Z"/><path class="cls-4" d="M288.65,319.09l-29.07-13.56c-2.7-1.26-5.81.62-5.95,3.59l-1.56,32.04c-.16,3.35,3.47,5.52,6.34,3.79l4.63-2.79,9.91,16.43c1.19,1.97,3.75,2.61,5.73,1.42l14.22-8.58c1.97-1.19,2.61-3.75,1.42-5.73l-9.91-16.43,4.63-2.79c2.87-1.73,2.64-5.96-.39-7.38Z"/><path class="cls-3" d="M207.58,330.37h-4.48v-4.77c0-1.22-.99-2.21-2.21-2.21h-.13c-1.22,0-2.21.99-2.21,2.21v4.77h-4.48c-1.22,0-2.21.99-2.21,2.21s.99,2.21,2.21,2.21h4.48v4.83c0,1.22.99,2.21,2.21,2.21h.13c1.22,0,2.21-.99,2.21-2.21v-4.83h4.48c1.22,0,2.21-.99,2.21-2.21s-.99-2.21-2.21-2.21Z"/><path class="cls-3" d="M370.68,233.76h-4.48v-4.77c0-1.22-.99-2.21-2.21-2.21h-.13c-1.22,0-2.21.99-2.21,2.21v4.77h-4.48c-1.22,0-2.21.99-2.21,2.21s.99,2.21,2.21,2.21h4.48v4.83c0,1.22.99,2.21,2.21,2.21h.13c1.22,0,2.21-.99,2.21-2.21v-4.83h4.48c1.22,0,2.21-.99,2.21-2.21s-.99-2.21-2.21-2.21Z"/><rect class="cls-1" width="440" height="440"/></svg>