<?xml version="1.0" encoding="UTF-8"?><svg id="_Слой_1" xmlns="http://www.w3.org/2000/svg" viewBox="0 0 440 440"><defs><style>.cls-1,.cls-2{fill:none;}.cls-3{fill:#f7f2ed;opacity:.56;}.cls-4{fill:#77ccf1;}.cls-5,.cls-2{stroke:#0099ce;stroke-miterlimit:10;}.cls-5,.cls-6{fill:#0099cd;}.cls-7{fill:#c79767;}.cls-8{fill:#ceeaf9;}.cls-2{stroke-linecap:round;stroke-width:10px;}</style></defs><path class="cls-3" d="M71.59,226.68c0,87.11,66.45,141.44,148.41,141.44s148.41-54.33,148.41-141.44-83.3-2.3-142.14-62.94c-91.97-94.79-154.68-24.17-154.68,62.94Z"/><path class="cls-8" d="M279.33,187.14c-11.25,19.77-33.25,40.07-53.51,49.39l-.72.33-.47-.63c-.12-.15-.23-.31-.34-.47-.22-.3-.42-.59-.64-.81l-2.95-2.95c-15.37-15.39-31.27-31.3-46.95-46.9-1.51-1.5-1.33-2.73-.58-4.11,13.08-24.32,31.25-42.65,54-54.48,10.62-5.51,22.65-9.1,36.78-10.96,9.97-1.31,18.22-1.65,25.97-1.07,2.69.2,4.24,1.67,4.36,4.14,1.28,26.19-3.61,48.6-14.95,68.52Z"/><circle class="cls-4" cx="97.13" cy="124.11" r="5.55"/><circle class="cls-7" cx="276.02" cy="76.62" r="4.74"/><circle class="cls-7" cx="233.55" cy="323.28" r="4.74"/><circle class="cls-7" cx="351.91" cy="137.94" r="4.74"/><path class="cls-4" d="M180.58,325.78h-4.48v-4.77c0-1.22-.99-2.21-2.21-2.21h-.13c-1.22,0-2.21.99-2.21,2.21v4.77h-4.48c-1.22,0-2.21.99-2.21,2.21s.99,2.21,2.21,2.21h4.48v4.83c0,1.22.99,2.21,2.21,2.21h.13c1.22,0,2.21-.99,2.21-2.21v-4.83h4.48c1.22,0,2.21-.99,2.21-2.21s-.99-2.21-2.21-2.21Z"/><path class="cls-4" d="M353.92,225.48h-4.48v-4.77c0-1.22-.99-2.21-2.21-2.21h-.13c-1.22,0-2.21.99-2.21,2.21v4.77h-4.48c-1.22,0-2.21.99-2.21,2.21s.99,2.21,2.21,2.21h4.48v4.83c0,1.22.99,2.21,2.21,2.21h.13c1.22,0,2.21-.99,2.21-2.21v-4.83h4.48c1.22,0,2.21-.99,2.21-2.21s-.99-2.21-2.21-2.21Z"/><path class="cls-5" d="M303.2,125.59c0-2.26-.04-4.55-.13-6.87-.13-3.66-1.48-6.77-3.99-9.25-2.61-2.57-5.98-3.76-10.92-3.85-1.32-.03-2.62-.04-3.91-.04-44.49,0-75.48,15.42-101.87,46.2-.6.69-1.53,1.54-2.56,1.63-7.08.6-15.46,1.29-23.84,1.82-5.49.34-9.45,2.57-12.13,6.8-13.68,21.8-18.87,27.51-18.87,31.71,0,1.03.31,1.96.88,3.02,4.37,8.08,12.86,4.56,29.18,8.8,0,1.22-.05,2.38-.05,3.51,0,3.48.45,6.67,4.15,10.35l30.24,30.21c3.35,3.35,6.72,4.22,9.32,4.22,2.74,0,4.62-.97,4.72-1.01,0,.04,0,.09,0,.16,0,2.4,3.31,22.22,3.61,23.86,1.07,5.83,6.73,6.92,8.7,6.92,3.03,0,1.33.44,31.85-19.45,3.44-2.24,5.32-5.4,5.67-9.27.81-9.14,1.47-17.33,2.01-25.02.12-1.65.69-2.78,1.99-3.89,29.25-25.04,45.96-55.94,45.96-100.56ZM158.3,194.61l-.03.09c-.23.74-.63,2.07-2.23,2.07-.17,0-.36-.02-.56-.05l-21.83-3.47c17.78-26.9,17.09-26.02,17.9-26.92.84-.94,2.27-2,3.74-2.16,5.28-.59,9.51-.84,18.53-1.57-4.57,7.97-10.79,16.57-15.52,32.01ZM198.82,245.15c-1.59,0-2.46-.72-4.3-2.63l-28.88-28.86c-.88-.88-1.95-2.2-1.95-4.11,0-.43.05-.88.17-1.37l4.01-16.34,48.91,48.92-1.63.45c-2.67.73-13.54,3.94-16.33,3.94ZM242.8,257.02c-6.76,4.57-13.45,8.99-20.52,13.67l-6.77,4.49-.24-1.51c-2.53-16.59-3.05-19.25-3.05-20.61,0-1.69.77-2.18,3.25-2.98,8.92-2.86,17.53-6.96,26.33-12.51,2.15-1.4,2.28-1.57,3.13-1.57.27,0,.62.02,1.13.02-1.22,17-.99,19.48-3.26,21ZM294.48,126.63c0,68.67-48.85,100.82-69.38,110.23-1.54-2.06.33-.34-51.35-51.76-.82-.82-1.14-1.56-1.14-2.28,0-.61.22-1.2.56-1.83,13.08-24.32,31.25-42.65,54-54.48,16.24-8.43,37.82-12.3,55.11-12.3,12.83,0,12.2.12,12.2,12.42Z"/><path class="cls-8" d="M246.06,236.02l-.3,4.18c-.17,2.38-.33,4.76-.52,7.14-.03.43-.06.86-.09,1.28-.13,1.73-.25,3.52-.55,5.27-.18,1.07-.8,2.46-1.8,3.13-6.76,4.57-13.45,8.99-20.52,13.67l-6.77,4.49-.24-1.51c-.29-1.9-.58-3.77-.87-5.62-.7-4.48-1.36-8.71-1.99-13.03-.5-3.38-.19-3.89,3.06-4.94,8.92-2.86,17.53-6.96,26.33-12.51l.2-.13c.68-.43,1.36-.85,2.04-1.27.32-.19.64-.17.82-.16.04.01.09.01.15.01h1.05Z"/><path class="cls-8" d="M216.78,240.76l-1.63.45c-1.13.31-2.26.63-3.38.95-2.48.72-5.04,1.45-7.61,2.02l-.97.22c-2.04.45-3.35.75-4.37.75-1.59,0-2.46-.72-4.3-2.63-.42-.43-.91-.94-1.49-1.52-4.23-4.21-8.44-8.43-12.66-12.64-4.9-4.91-9.8-9.81-14.73-14.7-1.08-1.07-2.44-2.81-1.78-5.48.86-3.47,1.71-6.95,2.57-10.46l1.44-5.88,48.91,48.92Z"/><path class="cls-8" d="M173.82,162.6l-.93,1.62c-.14.24-.26.46-.37.66-.23.41-.43.75-.64,1.08-6.13,9.49-10.58,18.86-13.58,28.65l-.03.09c-.23.74-.63,2.07-2.23,2.07-.17,0-.36-.02-.56-.05-4.95-.81-9.82-1.58-14.97-2.39l-6.86-1.08,14.75-22.32c.29-.44.57-.89.85-1.34.69-1.11,1.4-2.26,2.3-3.26.84-.94,2.27-2,3.74-2.16,4.03-.45,8-.75,12.2-1.07,1.48-.11,2.97-.23,4.47-.35l1.86-.15Z"/><circle class="cls-2" cx="246.7" cy="160.98" r="23.32"/><rect class="cls-6" x="128.7" y="224.83" width="9.33" height="50.69" rx="4.66" ry="4.66" transform="translate(215.96 -21.02) rotate(45)"/><rect class="cls-6" x="131.79" y="234.12" width="9.33" height="80.59" rx="4.66" ry="4.66" transform="translate(234.01 -16.12) rotate(45)"/><rect class="cls-6" x="156.03" y="252.16" width="9.33" height="50.69" rx="4.66" ry="4.66" transform="translate(243.3 -32.35) rotate(45)"/><path class="cls-6" d="M296.82,311.84h-4.71c-.21-.04-.42-.1-.63-.13-1.35-.2-2.72-.33-4.06-.62-6.19-1.32-11.59-4.19-16.14-8.59-5.42-5.23-8.74-11.58-9.91-19.04-.14-.88-.26-1.75-.39-2.63,0-1.66,0-3.31,0-4.97.05-.36.11-.72.15-1.08.62-5.34,2.29-10.31,5.31-14.77,6.26-9.24,15-14.34,26.13-15.1,6.63-.45,12.85,1.11,18.64,4.42,12,6.87,18.65,20.92,16.29,34.52-1.31,7.52-4.74,13.91-10.34,19.1-4.78,4.43-10.39,7.23-16.81,8.36-1.17.21-2.36.35-3.54.52ZM286.97,283.85c.34,0,.58,0,.82,0,2.42,0,4.84,0,7.26,0,.84,0,1.25-.41,1.26-1.23.01-.74,0-1.48,0-2.22,0-1.03-.38-1.4-1.43-1.4-2.66,0-5.32,0-7.97,0-.23,0-.46,0-.68,0v-2.16c.31,0,.56,0,.82,0,2.64,0,5.27,0,7.91,0,.96,0,1.33-.39,1.34-1.35,0-.68,0-1.35,0-2.03,0-1.1-.38-1.48-1.5-1.49-1.87,0-3.75,0-5.62,0-.6,0-1.2,0-1.89,0,.93-2.22,2.28-3.9,4.46-4.81,2.15-.9,4.39-1.09,6.66-.73,1.75.28,3.48.75,5.21,1.14.87.2,1.46.07,1.77-.56.59-1.23,1.12-2.5,1.63-3.77.26-.65,0-1.21-.56-1.6-.32-.22-.67-.41-1.03-.55-3.59-1.41-7.28-1.98-11.13-1.46-6.65.9-11.23,4.44-13.72,10.68-.21.54-.4,1.09-.6,1.64-1.31,0-2.57,0-3.84,0-.9,0-1.32.44-1.33,1.32,0,.7,0,1.39,0,2.09,0,1.13.34,1.46,1.49,1.46.93,0,1.86,0,2.78,0v2.17c-1.06,0-2.06,0-3.06,0-.8,0-1.19.41-1.21,1.21-.01.74,0,1.48,0,2.22,0,1.03.39,1.42,1.41,1.42,1.18,0,2.35,0,3.55,0,.14.46.27.9.41,1.33,1.49,4.62,4.18,8.24,8.67,10.33,3.28,1.53,6.74,2.01,10.31,1.66,2.37-.23,4.66-.82,6.84-1.81,1.01-.46,1.34-1.08.98-2.02-.44-1.16-.94-2.29-1.46-3.42-.35-.75-.9-.97-1.73-.79-.55.12-1.1.26-1.64.41-2.84.79-5.69,1.24-8.63.59-3.42-.76-5.44-2.95-6.56-6.27Z"/><rect class="cls-1" width="440" height="440"/></svg>